<mxfile host="app.diagrams.net" modified="2024-03-17T22:35:32.366Z" agent="Mozilla/5.0 (Windows NT 10.0; Win64; x64) AppleWebKit/537.36 (KHTML, like Gecko) Chrome/122.0.0.0 Safari/537.36" etag="NqgeJGMTbXzp47kbkDS9" version="24.0.7" type="device">
  <diagram name="Page-1" id="2YBvvXClWsGukQMizWep">
    <mxGraphModel dx="989" dy="520" grid="1" gridSize="10" guides="1" tooltips="1" connect="1" arrows="1" fold="1" page="1" pageScale="1" pageWidth="850" pageHeight="1100" math="0" shadow="0">
      <root>
        <mxCell id="0" />
        <mxCell id="1" parent="0" />
        <mxCell id="aM9ryv3xv72pqoxQDRHE-1" value="Client" style="shape=umlLifeline;perimeter=lifelinePerimeter;whiteSpace=wrap;html=1;container=0;dropTarget=0;collapsible=0;recursiveResize=0;outlineConnect=0;portConstraint=eastwest;newEdgeStyle={&quot;edgeStyle&quot;:&quot;elbowEdgeStyle&quot;,&quot;elbow&quot;:&quot;vertical&quot;,&quot;curved&quot;:0,&quot;rounded&quot;:0};" parent="1" vertex="1">
          <mxGeometry x="40" y="40" width="100" height="450" as="geometry" />
        </mxCell>
        <mxCell id="aM9ryv3xv72pqoxQDRHE-2" value="" style="html=1;points=[];perimeter=orthogonalPerimeter;outlineConnect=0;targetShapes=umlLifeline;portConstraint=eastwest;newEdgeStyle={&quot;edgeStyle&quot;:&quot;elbowEdgeStyle&quot;,&quot;elbow&quot;:&quot;vertical&quot;,&quot;curved&quot;:0,&quot;rounded&quot;:0};" parent="aM9ryv3xv72pqoxQDRHE-1" vertex="1">
          <mxGeometry x="45" y="70" width="10" height="370" as="geometry" />
        </mxCell>
        <mxCell id="5Wq_7XuYk5Ms4TRdeuI5-37" value="" style="endArrow=classic;html=1;rounded=0;" edge="1" parent="aM9ryv3xv72pqoxQDRHE-1" source="aM9ryv3xv72pqoxQDRHE-2" target="aM9ryv3xv72pqoxQDRHE-2">
          <mxGeometry width="50" height="50" relative="1" as="geometry">
            <mxPoint x="110" y="320" as="sourcePoint" />
            <mxPoint x="-10" y="310" as="targetPoint" />
            <Array as="points">
              <mxPoint x="-10" y="410" />
              <mxPoint x="-10" y="110" />
            </Array>
          </mxGeometry>
        </mxCell>
        <mxCell id="aM9ryv3xv72pqoxQDRHE-5" value="Server" style="shape=umlLifeline;perimeter=lifelinePerimeter;whiteSpace=wrap;html=1;container=0;dropTarget=0;collapsible=0;recursiveResize=0;outlineConnect=0;portConstraint=eastwest;newEdgeStyle={&quot;edgeStyle&quot;:&quot;elbowEdgeStyle&quot;,&quot;elbow&quot;:&quot;vertical&quot;,&quot;curved&quot;:0,&quot;rounded&quot;:0};" parent="1" vertex="1">
          <mxGeometry x="220" y="40" width="100" height="450" as="geometry" />
        </mxCell>
        <mxCell id="aM9ryv3xv72pqoxQDRHE-6" value="" style="html=1;points=[];perimeter=orthogonalPerimeter;outlineConnect=0;targetShapes=umlLifeline;portConstraint=eastwest;newEdgeStyle={&quot;edgeStyle&quot;:&quot;elbowEdgeStyle&quot;,&quot;elbow&quot;:&quot;vertical&quot;,&quot;curved&quot;:0,&quot;rounded&quot;:0};" parent="aM9ryv3xv72pqoxQDRHE-5" vertex="1">
          <mxGeometry x="45" y="80" width="10" height="360" as="geometry" />
        </mxCell>
        <mxCell id="aM9ryv3xv72pqoxQDRHE-7" value="&lt;span style=&quot;color: rgb(25, 28, 32); font-family: consolas, &amp;quot;lucida console&amp;quot;, &amp;quot;courier new&amp;quot;, monospace; font-size: 12px; text-align: left; white-space: pre-wrap;&quot;&gt;HTTP POST &lt;/span&gt;&lt;span style=&quot;color: rgb(25, 28, 32); font-family: &amp;quot;Segoe UI&amp;quot;, tahoma, sans-serif; font-size: 12px; text-align: start; text-wrap: wrap;&quot;&gt;https://studies.cs.helsinki.fi/exampleapp/new_note&lt;/span&gt;" style="html=1;verticalAlign=bottom;endArrow=block;edgeStyle=elbowEdgeStyle;elbow=vertical;curved=0;rounded=0;exitX=0.5;exitY=0.757;exitDx=0;exitDy=0;exitPerimeter=0;" parent="1" edge="1">
          <mxGeometry x="-0.004" relative="1" as="geometry">
            <mxPoint x="90" y="420.09000000000003" as="sourcePoint" />
            <Array as="points">
              <mxPoint x="186.32" y="420" />
            </Array>
            <mxPoint x="271.32" y="420" as="targetPoint" />
            <mxPoint as="offset" />
          </mxGeometry>
        </mxCell>
        <mxCell id="aM9ryv3xv72pqoxQDRHE-8" value="" style="html=1;verticalAlign=bottom;endArrow=open;dashed=1;endSize=8;edgeStyle=elbowEdgeStyle;elbow=vertical;curved=0;rounded=0;" parent="1" edge="1">
          <mxGeometry relative="1" as="geometry">
            <mxPoint x="95" y="460" as="targetPoint" />
            <Array as="points">
              <mxPoint x="270" y="460" />
            </Array>
            <mxPoint x="250" y="460" as="sourcePoint" />
          </mxGeometry>
        </mxCell>
        <mxCell id="5Wq_7XuYk5Ms4TRdeuI5-3" value="" style="shape=image;verticalLabelPosition=bottom;labelBackgroundColor=default;verticalAlign=top;aspect=fixed;imageAspect=0;image=data:image/png,iVBORw0KGgoAAAANSUhEUgAAAQwAAABFCAYAAAC/rNiDAAAKK0lEQVR4Ae1d7Y3bMAz1jAG6z6HIADdDgXSEjnD91V8doSgOnUINJVEiJcqREzu243fAwY4+KPKRepYUSxncMDj8AwPEAGKgJwYGX8jhDwgAASBwA4FhcCCMGxghGwgAgYgACAOhAASAQDcCIIxuqFAQCACBFmF8fj+5gTK/fgAkIAAEgEBAwCSMPxd3Gs4OVIEoAQJAQCHQJIwvF/epSuIDEAACh0cAhHH4EAAAQKAfAZMwfp6xdtEPIUoCgeMgoAnjw50pAQudxwkAWAoEpiCgCSPWxAhjCoQoCwSOg4BJGPQtCRY9jxMEsBQI9CIAwuhFCuWAABCgfWf1XhKMMBAZQAAIWAg0CWM4ucsfqwbSgAAQOCwCJmE45/Bq+GFDAoYDgTYCLcJo10AOEAACh0UAhHFY18NwIDAdARDGdMxQAwgcFgEQxmFdD8OBwHQEQBjTMVuixueP6/kjb3SkwKe7vA9u+NZ5uMDf61EEb9dvxun/3d5h/PGN8p90XEHU5/zLuWzTEohB5ioIvDphhG975v6KeIE9N7/OijBOPyYeLkD1t0AY7orN2+ASYTR0WiXY0ejjCIAw7sFwIcKInYtGBHMSxj0W3l+HCOPkLn+dcyMkdr981FwVAYswfv/+vYJOn+7yhV465X8xhKbNcCl9cKfv8enrTwYb3Pk7nRAW6/EemKJOqp924rbb+/g6uOHLxV3oGuWefxIkZR3O1yOYuUc1JYGUn72zrM55a7riRzVXG+KURpGUrBtHDCkoirzu6VMSgJvdIkD9ofxdkucTRuyI3NklmpEUEklEIvAdOOYNfJygzIsyWp2XSSFQj27f5w1MTDoviB0fYbTalGZNuS8JovzsZVmEwY2YebRWEkcCXC5daZQgCNtPM/Jnap+mHPg7IAKbIAweKfinuHZC3flEZx0jkyimrk8ZUQaPSvgaCSsQBneQ6YShLXj8U0kQ5WffgkkKse1GHsmh0YUaWVAVKs8LqemaySUsZk5YmH0cAkjYCgIWYTxdN2NkwDrUHX5GwkjTE24tXI9CGGx1RQBEGD3f0jCxYGGToXz9q0UY//79e7LhkQSsKUkkk7EpiZkXLagJhzLiqKGxwe5RwrDbvB9SPxLgDhw7qTkqaHVcqtPKY7VoXYLLxDWKvmnH1Xdq+sICW9cRX7eqIH07CFiE8fw1DMIjBhJPD3hdQm6Ei3lhAdI51zElqeSmUQWTBi9c8pqFc7cJQ2zO8zotu+jp5CLj+8V9/DjlaQQ/5dPUQbyPMZYXv/7MU4885fDRWdZlMuH3RER7fcTCMc+485SP03HdBQLbIYxdwAUlZ0DAj8Cs0eQMsiFiYQQswnj+lGRhIyF+Gwjwt1ogi2344x4tLMK4Rw7qAAEgcAAELMJYZw3jAGDDRCCwdwRAGHv3IPQHAk9EAITxRLDRFBDYOwIWYezdJugPBIDAQghYhIFvSRYCG2KBwN4RsAgDi5579yr0BwILIbBFwpj71eq5ofOvavs3H+m1aGPz1twNQh4QWAIBsQWg+3Q0izDWnpJMIwxrN+kS6GaZHlxBGOrVaPVKdfn6cyAYfh1b1ZOvf/MBNLnJcMdleF9JmW98ThvL6FXu9Ho3FYxHAaZXvItXww1ZOSnXVXtalO35nA1vJ+ue2ov5QifePevxKWwcy8t6GXeqXdtGxkj5wxBVJbHsQte827f0fyWhSmBdNAYZb44d7csghutmO4x6hH/SN8Qjlfd1hS8qxTjBIgzOW+u6C8LwoAeHZAeRA3KQqE1jsYPqshzAJIfvW84j2Sd3/nYSDr/hIerAIgh8UKRg0XXH8nRJDrJguyIMXTDsDzLIj3Cp6pGuSTduIwocy6valAkBM3/6FyX7Dp7940t6jM7u/D71jA/bH6njkVwRC1Kr1r2PF+GvXK6Ms5yT7rrsIJ2l/QIfX98+Eza1QTcWYayyhhF3pfIJV0PaScqblfImsSFuIAubxEQ6GTMMLm1OS7tSuYwEi6y/AkZ10oY0Bc3jH6QT5D1Jps+t6YwR2NzJ+jt2GWThcyuIWX6/0bcJo6VrT1tjZaw831ZBTmX7oYwkBu4wJVaMAuXLJzKnO8c6lG2kEt6/ZbylXOOG2mqVb+nHYm7ZEcqRzvmBxXUnXjdBGMUW9tERRnV2RntK4gkl7Vuwyl2BXpAwOKjIJTKw/H3cdZqfqtlxsqxPFWRT5eVqxR0HESXTPQWLTOMn7pVMqVOYT7ZCpPp4izCKtkRdiYtIFrftusGWPBrjSh6XgjBkO3RPWJdpYaTT6pABt8pHPf6YShhR5iUeaqQfJkG/NB0pjkzMNrXsiA+oNIJj1O64boEw9HZy3joutoxXow9jFJGIgUG4OpuMK/+rclx+3iuTAp/9zR2dA5da4zTVchVoFLT5yVPXKYOJy8ZO94t+hoA7WEyjA3qLP1Nfsd5QP5lCu9XUIsqt9cwN5gDPafluTO5YXpbAd6GdD/+zDaxnaptwTh0oyK1tZEnyessfsWzlRynDuPfl5Qig7aswOo0+7bJD62y03p9kEUZ/7XlKjhLGzTMvrJED6XUFiYxbaroxYnrZ+XzRGBAcuF7Dci5vBJmXJTpufsowCbQUCZ1ATUGMqU6uPTWoRjqvb6etX+q0ufF4NyIzrgFJ/KrqRQJjl4mAiYGxiaMrie+NkRbLzH5gGYW9hi8L9fRHKq/aZl11sfCJyaTPDtI5Y2DJm5C2BcLQU5DY0XkNQ01B8npGtU5RjRy4rBipVLjMTyrUGbTjuVF2cvxcdKoQiDw64Dr11ZdLT8Y6X6aUZb1ujbq+rApYKcm6D8FqdeCxdkiSTRiEj7EY6pseywu6BfyKTlsSZLMTtzpnaDePRGocSoxTiRttKSJPNgr9S92T4NaiOBUw7CA5k/wqGrJut0AY+ci8MIUIPxvAHZ07vsyTUxLnXDFlqciEjIz/6Tg/D8Y1ICh9rlGIdzI/cfI1sbvKF8FRnX4V6lqdsRmglnNj50xPQ0kWShd7Yc8WaT/VtI3StlqKRRihw2fMgs6BQMfyWHooY7TrOy7LbRGy0dG84DsIQ7UX21UdlvEzdFF1pS1cx5LHCNC1tKOoxyMppY+s33G/DcLoUBRFgAAQWB8BEMb6PoAGQGA3CIAwduMqKAoE1kcAhLG+D6ABENgNAiCM3bgKigKB9REAYazvA2gABHaDAAhjN66CokBgfQRKwggvUc34bsL6JkIDIAAE5kKgJIwgN7wslV+Amqs1yAECQGDXCNiEEX5fFISxa9dCeSAwPwIgjPkxhUQg8LIItAiD1jL0vouXhQCGAQEg0ItAizCovt5F2isR5YAAEHhZBFqEgRHGy7ochgGB+xFoEQYdaoNFz/txRU0g8JIIgDBe0q0wCggsgwAIYxlcIRUIvCQCNmHgxa2XdDaMAgKPIlASBl4NfxRR1AcCL4xASRgvbCpMAwJA4FEEEmEMg/8ZNPopNPwDA8QAYqAVA/8Bozskup/SsAgAAAAASUVORK5CYII=;" vertex="1" parent="1">
          <mxGeometry x="130" y="430" width="112.64" height="29" as="geometry" />
        </mxCell>
        <mxCell id="5Wq_7XuYk5Ms4TRdeuI5-6" value="" style="endArrow=classic;html=1;rounded=0;" edge="1" parent="1">
          <mxGeometry width="50" height="50" relative="1" as="geometry">
            <mxPoint x="95" y="155" as="sourcePoint" />
            <mxPoint x="265" y="155" as="targetPoint" />
          </mxGeometry>
        </mxCell>
        <mxCell id="5Wq_7XuYk5Ms4TRdeuI5-8" value="HTTP GET&amp;nbsp;&lt;div&gt;https://studies.cs.helsinki.fi/exampleapp/notes&lt;/div&gt;" style="text;html=1;align=center;verticalAlign=middle;whiteSpace=wrap;rounded=0;" vertex="1" parent="1">
          <mxGeometry x="100" y="120" width="160" height="30" as="geometry" />
        </mxCell>
        <mxCell id="5Wq_7XuYk5Ms4TRdeuI5-10" value="" style="endArrow=classic;html=1;rounded=0;" edge="1" parent="1">
          <mxGeometry width="50" height="50" relative="1" as="geometry">
            <mxPoint x="269.84" y="180" as="sourcePoint" />
            <mxPoint x="90.15034482758605" y="180" as="targetPoint" />
          </mxGeometry>
        </mxCell>
        <mxCell id="5Wq_7XuYk5Ms4TRdeuI5-12" value="HTML" style="text;html=1;align=center;verticalAlign=middle;whiteSpace=wrap;rounded=0;" vertex="1" parent="1">
          <mxGeometry x="152" y="159" width="60" height="30" as="geometry" />
        </mxCell>
        <mxCell id="5Wq_7XuYk5Ms4TRdeuI5-14" value="" style="endArrow=classic;html=1;rounded=0;" edge="1" parent="1">
          <mxGeometry width="50" height="50" relative="1" as="geometry">
            <mxPoint x="96" y="220" as="sourcePoint" />
            <mxPoint x="266" y="220" as="targetPoint" />
          </mxGeometry>
        </mxCell>
        <mxCell id="5Wq_7XuYk5Ms4TRdeuI5-15" value="HTTP GET&amp;nbsp;&lt;div&gt;&lt;span style=&quot;color: rgb(25, 28, 32); font-family: &amp;quot;Segoe UI&amp;quot;, tahoma, sans-serif; text-align: start; background-color: rgb(255, 255, 255);&quot;&gt;https://studies.cs.helsinki.fi/exampleapp/main.css&lt;/span&gt;&lt;br&gt;&lt;/div&gt;" style="text;html=1;align=center;verticalAlign=middle;whiteSpace=wrap;rounded=0;" vertex="1" parent="1">
          <mxGeometry x="101" y="185" width="160" height="30" as="geometry" />
        </mxCell>
        <mxCell id="5Wq_7XuYk5Ms4TRdeuI5-16" value="" style="endArrow=classic;html=1;rounded=0;" edge="1" parent="1">
          <mxGeometry width="50" height="50" relative="1" as="geometry">
            <mxPoint x="265" y="240" as="sourcePoint" />
            <mxPoint x="95" y="240" as="targetPoint" />
          </mxGeometry>
        </mxCell>
        <mxCell id="5Wq_7XuYk5Ms4TRdeuI5-17" value="main.css" style="text;html=1;align=center;verticalAlign=middle;whiteSpace=wrap;rounded=0;" vertex="1" parent="1">
          <mxGeometry x="152" y="219" width="60" height="30" as="geometry" />
        </mxCell>
        <mxCell id="5Wq_7XuYk5Ms4TRdeuI5-18" value="" style="endArrow=classic;html=1;rounded=0;" edge="1" parent="1">
          <mxGeometry width="50" height="50" relative="1" as="geometry">
            <mxPoint x="97" y="279" as="sourcePoint" />
            <mxPoint x="267" y="279" as="targetPoint" />
          </mxGeometry>
        </mxCell>
        <mxCell id="5Wq_7XuYk5Ms4TRdeuI5-19" value="HTTP GET&amp;nbsp;&lt;div&gt;&lt;span style=&quot;color: rgb(25, 28, 32); font-family: &amp;quot;Segoe UI&amp;quot;, tahoma, sans-serif; text-align: start; background-color: rgb(255, 255, 255);&quot;&gt;https://studies.cs.helsinki.fi/exampleapp/main.js&lt;/span&gt;&lt;br&gt;&lt;/div&gt;" style="text;html=1;align=center;verticalAlign=middle;whiteSpace=wrap;rounded=0;" vertex="1" parent="1">
          <mxGeometry x="102" y="244" width="160" height="30" as="geometry" />
        </mxCell>
        <mxCell id="5Wq_7XuYk5Ms4TRdeuI5-20" value="" style="endArrow=classic;html=1;rounded=0;" edge="1" parent="1">
          <mxGeometry width="50" height="50" relative="1" as="geometry">
            <mxPoint x="265" y="300" as="sourcePoint" />
            <mxPoint x="95" y="300" as="targetPoint" />
          </mxGeometry>
        </mxCell>
        <mxCell id="5Wq_7XuYk5Ms4TRdeuI5-21" value="main.js" style="text;html=1;align=center;verticalAlign=middle;whiteSpace=wrap;rounded=0;" vertex="1" parent="1">
          <mxGeometry x="152" y="279" width="60" height="30" as="geometry" />
        </mxCell>
        <mxCell id="5Wq_7XuYk5Ms4TRdeuI5-22" value="" style="endArrow=classic;html=1;rounded=0;" edge="1" parent="1">
          <mxGeometry width="50" height="50" relative="1" as="geometry">
            <mxPoint x="97" y="339" as="sourcePoint" />
            <mxPoint x="267" y="339" as="targetPoint" />
          </mxGeometry>
        </mxCell>
        <mxCell id="5Wq_7XuYk5Ms4TRdeuI5-23" value="HTTP GET&lt;div&gt;&lt;span style=&quot;color: rgb(25, 28, 32); font-family: &amp;quot;Segoe UI&amp;quot;, tahoma, sans-serif; text-align: start; background-color: rgb(255, 255, 255);&quot;&gt;https://studies.cs.helsinki.fi/exampleapp/data.json&lt;/span&gt;&lt;br&gt;&lt;/div&gt;" style="text;html=1;align=center;verticalAlign=middle;whiteSpace=wrap;rounded=0;" vertex="1" parent="1">
          <mxGeometry x="102" y="304" width="160" height="30" as="geometry" />
        </mxCell>
        <mxCell id="5Wq_7XuYk5Ms4TRdeuI5-24" value="" style="shape=image;verticalLabelPosition=bottom;labelBackgroundColor=default;verticalAlign=top;aspect=fixed;imageAspect=0;image=data:image/png,iVBORw0KGgoAAAANSUhEUgAAAk0AAABFCAYAAABXNtIcAAATkElEQVR4Ae2dO45k2XVFcxI0BNDgnGQTBNrhJAhBoxBEehpAsy06NNmcgyRTPulQgGjISGIVezV2Hd73iYiMrMiofYHg/Z3fXe/dkyeqi5Uvry8vr/2UQd+BvgN9B/oO9B3oO9B3YP8dePkE6LWtBEqgBEqgBEqgBEpgk8DLy2uLpk063SiBEiiBEiiBEiiBHwi0aOqrUAIlUAIlUAIlUAInCLRoOgGpIiVQAiVQAiVQAiXQoqnvQAmUQAmUQAmUQAmcINCi6QSkipRACdxE4J9++rPXP/3pzzfZ+OjKP//FNz8y+NW//Ovrv/37b77okYjh++//eHEM//lf//3KWfbat7/97lBG/a048LP13vAusceHRn/NWYzhS/ZbZ/ySMdX3DoFZNOXL6EvJBXjERtLZuyirl3FeeC6/56TnAmdjH522EiiB6wms7qLWyDnzh/DR3Vb3mp58NguWmRem3VWMU+Zozhmx8yhtq1g5iu+I1ZH+3L8mjrM6Z+VmTO8537sb7xkHvlZ3471juNYftcC819fa2tXbKppSiYe6V5yk7HuOjxLr6mWcF34WRVyyBD/33/N89VUCz0JgdRc926ogObrb6l7Tr4qXI3+rGC/1vfJ7qY23lL+2oJg59NaYronjTF5+i2d269nO6O/djTP6bynzaO/oJWd7qKJpJhRech40n/mnUHOPh0DjBUY+27ws2NIuezYuqevaSD+sYX+21fq88PPyTfBzXx+sP2IhaXztS+CRCHAX8x57v3MNGXLN6m77DZh95Pjk/Zt2ODv75h9ZIKdv1+ixZ5t5aNomhkvzGTrEYp4ihox/+jSW6dv17I1FLujQtmyqawzEpa579Fu+WU+uKz+scWbtIM959cO+zTiYK0M//SivDXqfJWPZKoeP6Udd1/WnTs7n+ZnbsKOs4zlX1vMl54x1xo78jBNbR/Hkfj4f1id/n40xal+e8EGGj7Hk+ZF3nd49z6pd5rJmjTjy7MrZa0vbxuM+ttxTlr25zrOgJRPk36Sd/ZMmDypInWfgc48D+/DQn0EnYA6pLLYTNnr61y89/oST645Xer5AyuDTB85axsR87qfenm/l2pdACfw9web95m56f7jbuQevebdNiqmT9zvH8kZ22uV+531HFtt8aDM/aGvGeGk+M37zWOaZGeeZ3JdxcXbPhH3GW+dQjx4/yY053Gmez3iJn31a2s7xp80f/gd5bSGDnzlXHrswUE6fW7bRm3k5z6Fd1mz41j9r7GGfxrrPH7v6T/n5jNBPHsyV9xz6Ro597a5suYcN7azi1ObKRr7racd40i6y2MhGnDLxfVUmnz86qa991pHXD2dKTswzxvTtGPmUYW5M88z6lV36xp7+3Z9n0OfF/VbRRLB+0ihr2QiED409A2TOWAAeIHW9LKzlA2MOENZo2BXcp4Uf/oeH40PNdcczHtaxY0zMGSPnZ/phf65pv30JlMA5AvMucnfNG5kntDbv9irhpQz2j+7pyg/+uOPs0bCBrdmmLvMpN/PZzE3pZ8pm7IyPcp/xwQUOs22dI+UyBtaJV7/Y9fmo43mxzVloW34yrpTXVuZV45jPcKW30mcNXZ8h8/kD1NjVn+djH44rlujM5z397c0532SZ70LqMs4243RvFQ+8bOzvPaPJJ+Wxkc+PefrDj++J/piznnbwgR3P5FydVZ8s2Od5yE4fqcc+dmnzTCt2xpI2Lh5vFU0aArxBCQ7H+SG4hKVurqnrHj0QtI2ftMnYB6Mua/liJLC06zhfTNfQ92VijbE2sccnW+7nesclUALnCXB3ucc27pnJMPNE7psbWEN23s1pw/zhfdaW/SqJImueUQ6/2nJtxmhOcp9+5rM8L/uZj6as/uyNST+sr84Fg+SU8azOkfsZA+vI6xe7xpI9csSROXTlJ5/XlMdG5lV84mM+35We8ac+a+gnb2zKKxnmWXz/0PcM2rdPeca26W9vPjljI+NX90ycyOZnKx5tsb/imM8amXk38vmxn/ZklXEwljdnQ57nyZrPwrkxr3rsoGtDx+ekXffoc5+4mNsYzxiZ39yOiiYOnY5yPJ3Pvfmw5n6+TIKdNnPugxMqUAC11fLFVGa+LFOGGH346Mx97bQvgRI4T4B75b1FK5Md69yzbPNuzySObOYPdWeOcJ0eHxkDa9NPypMrjGsV46X5LBlk7NfkPuOcP+xczz7PkesZA+uZG/fszryuzfSTz2sln3nVOFhDz7bScy/1WUu2Z56VduzRJw79z/fIecqzZkv/rOXc8yk791OW8arpX5/OlU0brCW7HCufz4c1eGqb+dxPf9jjTFsN3dW7hI+jNs+ReQKf+M6W9xefzG3EwefN21HRhEMCMZh8sWYw7CnHHvMExZiD0Tg8gJxzOOSPWj5cfO1BYS/9YztjcJ4PgnhSh3HuG9+043r7EiiBfySwlwwzIas57zZ3OW2YP5TPnruJzbzLyK/yCza3GjbMBasYMwcYT+YzdbE/4yeWlF3FNuPyXMZCn2PkiYNPNmSMBa7m6IwBeeIxDs+Tdhyzpz3X6NMP59XPSh5948w48mdC6s1zpj6+893AN59s+Jhr7ue7ph39KYNuvivKub83x3fywpac0U/drTjPxCNvbKYdOOLD902f8qfPeNgnxrQ3/WNPfeSzaU99dDn/9JE6jpMFa/lsiD854gd5W76/rM195W7uzxRNOEnoBM7cD1Bsrim/OiR7AOSTDxJAU9+H5Xq++EJhL2MwFvppM/XZJz7sZCMuH/g8K77Uy9hTv+MSKIHPCcw7mskQSe4cMt67ebdN4nkfvfNbOSKTLPbnPcfmzAfoEIef1NmLkT0+mROUxxZ+iN2Yp+zMU9jZOpfr2kpW+GJ96xz4kfGMAR3WbNOGevjjLLQpIy+fFzIpr230lc04WOMM+Eq9eebUx6bndqyf7NFBzg82fS7KMWefRgzKOlaOdfmztjfnfNpFTnZbtlZxnoknffis0JOjZyAGnpuN+HwWrmErbcjffefY2jpT+uBM2Dxq2EquxJB6ecYpi23j0fd8P/NMR7Fs7s+iaVPwig0OP1+QK8xUpQRK4CsnMJP4JTi28hC5KRP0JTYr+5gE+CH5Jj8Y3/B4WRS+odnPTK0KCAUsmpxnv3U3UqbjQaBF0wDSaQmUwMMRuKVomt9WORw/XPlh1vZcBCiE55+afOkTPnLRtLob9+Y1/7SIgu9D/eFKi6Z7vyK1XwIlcCuBW4qmW31XvwRuIfDIRdMt5/pqde9ZNH21UHvwEiiBEiiBEiiB5yPQoun5nmlPVAIlUAIlUAIlcAcCLZruALUmS6AESqAESqAEno9Ai6bne6Y9UQmUQAmUQAmUwB0ItGi6A9SaLIESKIESKIESeD4CLZqe75n2RCVQAiVQAiVQAncg0KLpDlBrsgRKoARKoARK4PkItGh6vmfaE5VACZRACZRACdyBQIumO0CtyRIogRIogRIogecj0KLpumf61v/Ka38P1nXPoVolUAIlUAIl8G4EZtHEL/DzNwXb8ysMHrHxe3P8bcar+ChE9n6nDec7e7ZZ1LRoWhHvWgmsCXB/zCf0q1+qyp06kkk73u3V77LCDvbaSqAESuBNCWwVTemEBLRXnKTse47PFE3EvvoFjiRakm6Lpvd8YvX1tRLgruU9nHeP+SykKHqy8EEm8xBjvuRlQ2au5X7HJVACJXATgTNF0yxO8hvhLDrmHkmM5p9gZbDIZhLMb4yZLEm2+Q0UG+mHvVWiNBGnLf2jg78Zf/oxyeea5zF25u5rm37GPP3kWeGLHc/AOLmk3Y5L4CMS4J32PhE/77f3krswCybPmHeBe+YdcX/2eY/mXuclUAIlcDOBM0VTJiuSWyY49kyGc4+kSBKjHRVNJFFlkUfXQiP954Hxt1dcYI/YZiJFx1j1gV3ktGfRo79pg/gyLuZy8ayZ4JHVNj32bBZQymccyrQvgY9MgHfaPME5vIOMuTu5l+fMgor7xT3aa/Oe7sl2rwRKoAQuJrBVNJGc/KTRmbRIahYe7PmDHx3GFgeMpy7J0kJiJk6SKGs09FZJ9WzRlIkXeyZW9I09/X1yOpK5Orln7KwxNt5kovz8IZG6yEz76rUvgWcgwPudd5g77R3Ye/fz3sCBObrorNqerZV810qgBErgIgJbRZNGSEImNwsfklZ+KBKyQFI319R1jz6LJvykTcYWIeqylon3bNGEL3Sxw1m0m0WTyXjGoL+ZjDN27E+7MvO8uT9tIbNaU7d9CXx0AvN+5/3gLnnP5jnnFx730fdOu0bfe5Q0Oi6BEnhzAkdFE8mM5GTLsWv2cw9dkpht7mfhsZc41bd4oqddUjT5pz/pJ4smYmVvq81knLGjk0WRvtIW+/ijZQzKwMZzuda+BJ6FAPfn0sKIs+/p5f2V07ynrrcvgRIogTchcFQ04YTklD/wKQpWjWJAOfaZk8RsjP2GaTHmHJvIH7VMiqukmfrImqgtuNLH1KdwUT7tME5bzLFj7MwZa1tfWQSlbc6KPRvzLJrYS9vKtS+Bj0pg3p95Dt7/zB3sc5+8U8zn/uqesJb3bvrpvARKoARuInCmaMIBSc0f5CQm5n4ySbmmPLI2CyX2TIjaRIakOPUtQFzPgi3tZQz6w3cWQdif/tLe9JWxW9i4Rvxpi3Em+IxNFsZFj2yeCbuegXHaTr2OS+AjEuCdzru4OkPeCe5G3k3kZ36Y+8jkPVr56FoJlEAJ3ERgFk03GRvKFAEksbYSKIESKIESKIES+PAEWjR9+EfYA5RACZRACZRACbwHgRZN70G5PkqgBEqgBEqgBD48gXsWTR8eTg9QAiVQAiVQAiVQAhJo0SSJ9iVQAiVQAiVQAiWwQ6BF0w6cbpVACZRACZRACZSABFo0SaJ9CZRACZRACZRACewQaNG0A6dbJVACJVACJVACJSCBFk2SaF8CJVACJVACJVACOwRaNO3A6VYJlEAJlEAJlEAJSKBFkyTal0AJlEAJlEAJlMAOgRZNO3C6VQIl8KYE/v9/fvf6f7//59f//Y+fvP7l1y+feuast5VACZTAwxP42oum+Ut8H/6BNcAS+KAE/vqHX34qlCiWVh/22/5OoHmpb0IJPCiBVdH0/fd/fOW3jPthTrvkF/BeInspGn5burHR89vRr21NTteSq14JnCdwVDBZRO0VTuSUvPff/va7zwKYeSE3yRHq7uWLmfvQMf+lvXuPm5fuTbj2S+BKArNoIkH8/BfffGbN5HRJIXSJ7GfODibEQiLLRswkzGtak9M11KpTAucJ8J/eLIrO9Fv/qY57Tl6hWUBtzckTFkfkhix8WDenzVMgp97ce89589J70q6vEriAwCyaSCZc2NnmtzhlSDDzG9xK1iSXdtHNZKYd+lURtLKR9hynnZkAMzaKw5mcLMqwkbrIZqz6al8CJbBPgL+zdKZYUgb5M407aZ5Y5S3usEVV2uMem79ynfFR0bSVW1Z66d9cR8zaSN9HeSllOy6BEviCBGbRZGGy+ibGHpfexjzlsrBYyZIssplIWMtxyuQYX+kv9xxnDKxh1wTp2ehpJiqLIfo8H7r6m3b1174ESmCfgH/p26LoqEf+qHF3867OLz/os29RlfaQ9V7nOuNV8aPMzAGZW1Z6s2iac2M4ykv6b18CJfAABGbRZEgkCC65BQXrsxBS1j6T0ZQ1MShLn4VSFigpk+NVYsx9EiR2smUcJClsZEub6GaSXdlL3Y5LoASOCRwVSav9LavcUfLSvOd5j9VdFU3zi5Gy9uxjPz/kkFUuyNxypmjKXJryR3nJ2NqXQAk8AIGtosnQSDwWGpkk3OfCZ4LJb0/o2tBFLhuJLxOJhZo2UpYxcWztsY8tY1U3/a4Sa67pP88zk7N225dACZwjcK8/aeKe+iUn77FRcZ/dZw0ZPnsti5mUO8otKz3iI//QZq5L+VXsq7WMp+MSKIEvROCoaMqig3EWQjMJMbeombIc76hoEgE+SCqzkQDT/2p/FjkZB7EZn7qZzBhnklWmfQmUwPUE7vV3mvI+Myb/ZMt8s5VTUp5xFjO5R17Yyy2r/bNFU55Dn5mXXGtfAiXwAARm0cQFptCwkUQsVFjPRJRFEvLsoU+bsqxl4iLJIL8qjrC7WscGycR4Pjl6ff3k02InfShvTPr0fM71hdxMjPqYdl1vXwIlsE/grf7fc6uiyLtrvvFuc5eVR8YcsB/pdtGE3swB5ArtrvyfLZrMQ8bu3LMdxdz9EiiBdyQwiyYvPxfeT4ZDomCdhDRlWTOJoJOyzE0G6LPHx8RAQtIf63sNH8oaS8rv7aUufojZGLDBPPXdmwkz/XVcAiWwT+At/p2mvLvcUe+mnpl7d7mvtqmnjPvZY2Mv/6hLT67Iln4cWwhlrkNn+lEeu6u8lH46LoES+IIEZtH0BUOp6xIogScmcFQ47f3Dlk+MpUcrgRL4SARaNH2kp9VYS+BjE+A/1fF3nPzL4fTMt/5By4992kZfAiXwdARaND3dI+2BSqAESqAESqAE7kGgRdM9qNZmCZRACZRACZTA0xFo0fR0j7QHKoESKIESKIESuAeBFk33oFqbJVACJVACJVACT0egRdPTPdIeqARKoARKoARK4B4EWjTdg2ptlkAJlEAJlEAJPB2BH4uml5fX137KoO9A34G+A30H+g70Heg7sPkO/A2la+mBggZr2QAAAABJRU5ErkJggg==;" vertex="1" parent="1">
          <mxGeometry x="320" y="410" width="247.55" height="29" as="geometry" />
        </mxCell>
        <mxCell id="5Wq_7XuYk5Ms4TRdeuI5-25" value="" style="shape=image;verticalLabelPosition=bottom;labelBackgroundColor=default;verticalAlign=top;aspect=fixed;imageAspect=0;image=data:image/png,iVBORw0KGgoAAAANSUhEUgAAAjkAAABECAYAAABjyCRbAAATp0lEQVR4Ae2dzY0kWRWF242RWGAADmACRiAkhA1ISAixQmLHCiF8GFiyYQfYAEiYMNhQ6Cv6G5259SIiMyu7Oir7PCnn/dz/E+/euFXd0/nh6cOHp36KQe9A70DvQO9A70DvwKPdgQ/PAT11FIEiUASKQBEoAkXggRD48OGpTc4DPc+GUgSKQBEoAkWgCHxEoE1Or0IRKAJFoAgUgSLwkAi0yXnIx9qgikARKAJFoAgUgTY5vQNFoAgUgSJQBIrAQyLQJuchH2uDKgKnQuCr733/6Ztv/nsqn97amR//5KffYvDLX/366fd/+ONbu/Ade/jwt7/9/Ttnl2z++a9/PxHL3vj6T38+5FF+yw/sbN0b7hI0PgzmW2LRh885b8X4OX16KNuzycnL4yXiwp5xUCT2Lvbq8swEJVmNk5mEywEdmY4iUARuR2CVi2qj5syX5lFuK3vLTD2bDcasC1PvysfJc7QnRvScZWw1F0f+HWF1JD/pt/hxqcylfNOnt9zv5cZb+oGtVW7c4sOp7vpWk5OB8RD2monkfcv1USFcXZ6ZoLOJISmyAE76W8ZXW0XgURBY5aKxrRqIo9xW9pZ5VYCP7K18vNb2yu61Ou7Jf2sDMGvoa326xY9L6vI9ntlrY7tEfi83LpG/J8+97ui99NwltkuanFkAuJQ8GD7ztzyTRrAMLhz8OeblRpd6oTlIKs/VkXY4Q/8cq/OZoDNZaOYuaXKQO2PjNzHovgicAQFyMfPY/M4zeMi9VW77EyZ0+Phk/k09xAzd+iMG8GnbM2b0OWYdmrrx4dp6hgy+WKfwIf2fNvVl2vY8Z30RF2QYWzqV1Qf8UlYa85ZtzhPXlR3OiFk98BOvdqA79IO9PMzTjvzqYPZZshZb+bAx7SjrufaUyf2Mn70DPfK6nnt5jS9xTl+n7/BPP9F15E/S8/lwPvH32eij+sUTfODhoy8ZP/yeMys3z9OPS+NKn+6yvqTJIQgfioFrHJrBTxpBGaSJqBwzdC4Gg1leaV7EtP/M/PE/2FM+z12v5Hzg8mBT/zlLn9hPesrt2ZavcxEoAv8viJnf5Kb5Q21IGnjN3KYWTJnM71yL96wpnJPfme+codtaM+uDuqaP19Yz/UdOP4x/+omP+rOKS5+Y9cOY2LPeiiNlsZP62YN76tVf/IHOSN25fiZ+/A/86oIHO3MvP3rBQD5tbulGbtbljEO9nDmwrX3OoKGfwbl4o1f7yT+fEfKJB3v5jUPb8EFX70qXNHSoZ+WnOlc6ModSj/6kXnjRkQM/xQQ88FmefP7ITHlkp35jgj/9YY9ubSU26c/d1ltNDob9pDHOchC8F2Q6S5ACz3rKAowgJsDoBwDOGMgJSNoGOOXz3PX0h3P06BN71vD5mXagzzP1dy4CReAyBGYukrvWjawTapu5PYssfMmD/qM8XdlBDzkOjYEOdM0xZdlPvlnPZm1KO5M3fWd9VPv0D1zAYY6tOJIvfeAcf7WLXp+PMsaLbmJhbNlJv5JfXVlX9WM+w5XcSp4zZH2G7IklcdF35Wd80OFPGXmZ5/Oe9vb2xDexzLuQsqxzTD+lrfwBLwf0vWc08Ul+dOTzY5/2sOM9WdnjLONjvxcXtPRdnXebt5ocDeCsyWqgOJUfAJkgIZ9nyqqX2cvNGjupk7VAKstZgsGF1LfU63oCzTnynDtYq3N1yZOuTOciUASuQ4DcJY8d5JqFP+tE0jO3Z9GFb+qwfpjP6nJGhzY9g9c64xl21eXZ9NGaJJ151rOMF3rWo8mrPWd90g7nq7j2auAqji1/OYdfu+jVl5zhw4+soSs7+bwmv1gYDzaxgc0cKznpsy4jn3ijU/2JYcaSd8EY1O+c/Kwd097eHl/QnyP9V/YSP+HNjzrV4V5d7Fc45rOGZ+ZGPj/oqQ/Z+aySDn/edWnpN2vxT7rPDB13G0dNDkZxyJFrz5wnbYI76fnw81Kqb86CwczYS3DoeZHUNR/u5MHHBHrS1dO5CBSByxEgr8xbpMjdLHLkWY6Z27Powpv1Q9lZIzxnxkb6wNm0k/zUCv1CzrU819azxCB9v6X26QO4iKNnc844kpY+cJ61cU/vrOvqTDv5vFb8YGmd1Q/OMpaVnLZSnrPE9pJnpR5n5PFD+/MeuU9+zhxpn7PcG5+8k568rFdD+9p0L2/q4Cyxy7X8+Xw4A091s5/0tIc+YsoBHR2OqW8rLvmZtZF+JP3m9VGTg2IKAR9GXoRpFJp88s7ASQQGQBG4e0CdwE397BM8bHkpV7zQ0r7y2nSPL45M1BVdPvSmHs87F4Ei8BKBWYQzdy1uKZV0zsnl1GH9SBnX1ojM5VVhhn+v+GbhXvmYNUB/rAmz9kz/qXXJe03t0xfmXBMPfvDJAY91EFz5MNIH9vijH8aTelxDU59nzGmHeLWz4kdeP9OPfCek3Iwz5bGddwPbfHJgY55Jz7umHu3Jg2zeFfmk7+2xnXihS5yRT9ktPy/xR7zRmXrAERveN22KP3P6Ax0fU9+0TzypL+0hP5/PpMOzGshh667jkiYHgwkSjrD3k055Jj+8DsGGRtB8EihAnfKC63le1NSXPmiPeepMeejzYXCGXz7gGSt+KJe+Px/2P0WgCCwRIG8yR8mvzEVyDh7zbua2RTfzUX1bNYL8tP6gH5050Jk+QEPGWsOcMns+QuOTNUF+9GAHX/R58s46hZ6tuDxXV2KFLc634sCOGE8fkOHMMXUohz1xnTzi5fNCV/KrG3l50w/OiAFbKTdjTnl0Grdr7eSMDHx+0OlzkY89dAY+yOtaPs7Fn7O9PfGpFz6x29K18vMSf9KGzwo5cTQGfOC5OfDPZ+EZulKH+EtnRo+f5IWmLxnrKi71qge5u4/Z5NzTAAFkkPfUXV1FoAh8OQjMontN5Ft1iNoEreNxEODlPV+4nzu6bOI+lS80CVt32SZnZXsrN1a87/asTc67fXR1vAh8MQi8psnhpTd/QuRlyMun47EQoHGdv5X43BGeuclZ5cbnxuvu9tvk3B3SKiwCReDOCLymybmzK1VXBK5C4MxNzlWBvFfmT9nkvFdM6ncRKAJFoAgUgSLwAAi0yXmAh9gQikARKAJFoAgUgZcItMl5iUlPikARKAJFoAgUgQdAoE3OAzzEhlAEikARKAJFoAi8RKBNzktMelIEikARKAJFoAg8AAJtch7gITaEIlAEikARKAJF4CUCbXJeYtKTIlAEikARKAJF4AEQaJPzAA+xIRSBIlAEikARKAIvEWiT8xKTnhSBIlAEikARKAIPgECbnNse4r3/Fct+j85tz6FSRaAIFIEiUAQ2EZhNDl/Y5TeCOs/vfdlU9sYEvncjv011mqdx4LM1iO/S2GYT0iZnC9WeF4FtBMgj6wpzfpnipJm7yZ/rs31H0XbUpRSBIvDZENhqctIhCsteM5G8b7m+pMnB91UxpLmhiLbJecsnVltfKgLk4CoX+WHBQT6uclX6Gb9hWt86F4EicFIELmlyZjNBYfInqtkkTJo/jfkbooRh/jYEXerN4meBlIaOtMP56mvmsY3vqUv7yGBv+q8NZgtunhmPvrOXrm7m6fO0k7HiI3qMgfUZm8qMr+sicA0C3GnzaUvuiKdNzhZyPS8CRWATgUuaHF7ivoB5IfNxZDMwaTQCFC7GUZNDAZMXfmRtDNK+dpmxt9cMWDSZ9R85iyXy2uAcPvXZpGhv6sC/9Iu9uBhr2oRX3czoc9jwyJ9+yNO5CLxXBMgl8uNocO/3GiHz9khP6UWgCBSBbxHYanJ4Kfv5lvnp6fks97ygbRTypQ8PL21f5r74U5bC54ufdRa4LIzoTZo6Lm1y8M8GBFl8wp9sctKe+tMnZZKm75yxtpAnJvJngc64pU/9nncuAu8dgbz7xGItmPWFHPCMOXMWuannveNS/4tAEXgDBLaaHE1TeCgujFmcLEi81KHBmyPPlE16vuxngUO3TYOynGWzc2mTg01k0UMs6s0mh3PjyVl7+Ie8I33nbOoVM/mTPnXBszpTtnMReM8IrH6AIB7z2tjIAfPNs5zJodn4JL3rIlAEisALBI6aHIoOL31Hrj1znjRkKVyOSc9GgfVegUOHRdFm45omx9+upJ1scrANbWvMJiR9RyabGG2lrizQ6YM8YGNcnnUuAo+CwOp+m8/G2CZHJDoXgSJwNwSOmhwM0Qz4ExQvaF7iqwFNPujss8lhzcueYfPkHp3wH41sNrJJWcll0bSgpo0pTyHearRSF7bQo+/sWatbW9m0pG5iRZ+Dfb4EoKVu+ToXgfeKwLzjxGGeGNPMMc+dyYmsL553LgJFoAhsInBJk4MwL2FfvBQj9n7my9xz+PNlbmMDnYZgNgoUMGWZkbcQek6xdKS+9EH6LJroNwZ4ZpMzbaXvFmnPpu/otclBd/pmLPrFDG/GhF5jYJ1+plzXReC9IjBzYuYF996ccM5YyYk2OYlI10WgCBwiMJucQ4ErGHhp2xRcIVbWIlAEikARKAJFoAi8HoE2Oa/HsBqKQBEoAkWgCBSBEyLQJueED6UuFYEiUASKQBEoAq9H4FM2Oa/3rhqKQBEoAkWgCBSBInAjAm1ybgSuYkWgCBSBIlAEisC5EWiTc+7nU++KQBEoAkWgCBSBGxFok3MjcBUrAkWgCBSBIlAEzo1Am5xzP596VwSKQBEoAkWgCNyIQJucG4GrWBEoAkWgCBSBInBuBNrknPv51LsiUASKQBEoAkXgRgTa5NwIXMWKQBEoAkWgCBSBcyPQJufcz6feFYFHQuCv//nH08++/sXTD373o6evfvPD55k95x1FoAgUgbsj8KU3OfNLO+8OcBUWgSLwjMDP//Lb58aG5mb1gd5xHwSyrvHlwvkdgvlFxFibX5R6qQf9wtRLkSrfZ0Vg1eRwef0W4EyAa75w8xreawGY32ac3/59ra4sBtfKlr8IFIHLEDhqcGx69hqdfDlTl3h555h1IWmu5WFeDWsf8xzYvHQc1RXo6COm1aCmfaq6ht5VfCs/9s7QQRwdReDUCMwmh4ubXT/OW0yuaVyu4b0GIHyZxQaft4rWke6jYnQkX3oRKAL7CPBHUTYxl8xbf3RFntsUMGeTMPfUiVWTwBlyW/XC+jdrDBGuzrYiP6orNjnW1tSDb9Tglf/Jt7fes4/urfj3dE4aWGGnowicGoHZ5JB0q4tLUpDkfuSxaHBuUq54LUIJBvwkikPdzKskXOlQNufUo0/S0zeSfRYDm6iMB1l401f1dS4CRWAfAf7OzSXNjTzwXzLyZb2qW+QwNcPhSznlpDnDQ83Y0icfc9aKrFnIZw1KH5Sn7vCBbw7tz9qVOidtr65lLCsdnKWPyTPrcNJS74yh+yJwGgRmk2MjwQWeAxoFwsE++bIRWPGSIDlIVBuHXCdPrrGV9pLmOn3gDL02ZMbGzLAw6ANzxoes9qZe7XUuAkVgHwH/krFNzNEM/9EgdzNX5w8ryEP3JZ31KM+nHZsc5a0N7LN+zVphLbG2rPxJW9CpLZNPP9OPlS/X1DXtaH/GT1z6Dc2YjSnlpHGGHP53FIFTIzCbHJ3lsnOJ81KbgPLM2cTlfPKyzyIBTzY22VBMve5nQfDcmaRET470YyY7fKkTWYsitJW+1N11ESgCxwgcNTUr+pZWcpQ6MvM881jZfJlvreV1zuZivuSzfs1agXz6kGt15wydeoQNfHMoN/2Y8V5T12bdSyywS1zoW9U745x+IoeP+NtRBE6NwFaTo9MkhBc5E0s6CUSS+GHPmLzss0jAQwJlE4UteNShDWcLg/s5r5Iu7VpAUi7PtG8szLO4pGzXRaAIHCPwqX6TQ37y8mVkHuuRL/NZNzyXL+dsLjjPBgF7DnRQW3KknZU/W7zWwaxV6cdr61rGgA8zfuLCNnZYzw8Yr3xYnWWMXReBUyBw1ORk4rEmQRwkMh9HJvnkhSeLBHuTW3lnbJBAc6x+mkge6LMpST9I9tlApQ+sLZqpt+siUARuR+BT/Z2czOf5IsdbX97zpe1+VWM4mzXEpiDr16pWZGOT6xVyWSutWxlP+iE99VxT1yY2xqM+cVrZkWdFm3rl7VwEToXAbHK4uCSQg2SzseE8Ez0TFX5oyDMmL2fZvJA08K8KzV6BoLjoz7Ohjz9toW/aYA+/PmnT+NzrA3yzwGkjffescxEoAscI3Ov/rqIu5Mj6Yb0xt8nlya8suWy98Mw5mwvPrBNZ+7IuwiePMrM2eu486fg09WctmvXn2rqWWMz4sSturLewgWatJA72qdfYOheBUyEwmxyLBRfYTzpMcnm5J+9M3ORFh4UAeWh8TBqTXFranGsKmL7pS/Ls0VIW+/isD+hgn/LSZpFJe10XgSKwj8A9/p2czF1y1NzUMntzl3zdGvMln3zooC7MYV3I8+mPjQI8WevyXPlZK7HLmWPlh7ExJy8y6cusa9CSf8aPPn2cNT1xzJiQmT7re+cicCoEZpNzKufqTBEoAg+DwFGjs/cPAT4MCA2kCBSBt0WgTc7b4l1rReBLRoA/uuLv6PiXkZnZb/0DgF8yVo29CBSBOyDQJucOIFZFESgCRaAIFIEicD4E2uSc75nUoyJQBIpAESgCReAOCLTJuQOIVVEEikARKAJFoAicD4E2Oed7JvWoCBSBIlAEikARuAMCbXLuAGJVFIEiUASKQBEoAudD4Nsm58OHp6d+ikHvQO9A70DvQO9A78AD3YH/AaLVFd4vnt59AAAAAElFTkSuQmCC;" vertex="1" parent="1">
          <mxGeometry x="320" y="150" width="249" height="29.76" as="geometry" />
        </mxCell>
        <mxCell id="5Wq_7XuYk5Ms4TRdeuI5-27" value="" style="shape=image;verticalLabelPosition=bottom;labelBackgroundColor=default;verticalAlign=top;aspect=fixed;imageAspect=0;image=data:image/png,iVBORw0KGgoAAAANSUhEUgAAAlIAAABMCAYAAACmnFmxAAAUsklEQVR4Ae2dTYos23VG7zQEbngAnoCG4EEYg/AYBAYh1DK455YRnoOkpjruSZ6Cf8A9d+UxlFkPreLzficiI7Iy82ZlfQeS87fP/lkRZ+eu++679e3t27e3fsqg70Dfgb4DfQf6DvQd6Dtw/h34BrR//5+3fsqg70Dfgb4DfQf6DvQd6Dtw4h2ghvqhkHprK4ESKIESKIESKIESOEeghdQ5XpUugRIogRIogRIogXcCLaTeUXRQAiVQAiVQAiVQAucItJA6x6vSJVACJVACJVACJfBOoIXUO4oOSqAESqAESqAESuAcgRZS53hVugRKoARKoARKoATeCbSQekfRQQmUQAmUQAmUQAmcI9BC6hyvSpdACZRACZRACZTAO4EWUu8oOiiBEngggZ/8xV++/elP//tAi89n6m/+9mfvDH7xy1+9/fOv/+W7OokPf/jDH0/78B//+V9vxLLXfvPb312U8fyWH9jZem94l9jjQ6O/JhZ9+J79Vozf06db2d57hrey8XA9RwqpfEF9UbkUz9hIRHuXZ/WCziRAQjBOei51NvY501YCJXA9gdVdVBs5Z34xX7rbnr2mJ5/NImbmhal35eOUuTQnRvQ8S9sqYC75d4nVpfNz/xo/jp45Kjd9euR872480g9sre7Go314entnCqkMhge9V7Ck7CPHl5Lt6gWdSWAWSly8TLJz/5Hx1VYJvAqB1V00tlWRculue/aaflXQXLK38vGs7ZXdszpuKX9tkTFz6Ed9usaPI3n5Fs/so7EdOb93N46cv6XMs72jt4ztZrquLaRmkuHF5+HzmX9aNfd4MDReauSzzQuELvWyZ+Piuq6OtMMa+mdbrc8kMC8kBeORQopzz1hcTgadl8AzEOAu5j32fucaMty91d32J2X2keOT92/qIWb2zT8yQE7brtGjzzbz0NSND2fzGWfwxTyFD+n/tKkv07br2euLXDhD29LpWX3AL8+6R79lm/XkurLDGjGrB3ni1Q77Nv1grgz9tKO8Ouh9loxlqxw2ph3Puq49z+R8xs/chh5lHc+5ssaXnNPX6Tvy0090XfIn9/P5sD75+2z0Uf3yhA8y+qI+Y3DueeT1md6mbfVPP3wOymePfXXqV8aYdtK+sqnrpuNrCykc9sETXD4E9giONvcISOBe9gyIfV4+Gr2yzNkTctrP89jzfK47Xp3LB4scNvWfefq02le3L4Tz9iVQAtsEuIt5v5l7d8kNuYeWebdNlHkm73eO9WLmFNa533nfWUO3uWbmB3VNH8/mM/3nnH4Yy/TzSO5Lv4jdmNDPeCsOz+lDcsOuud349Bf/2ael7hynbuTVhQx25lx59MJAOW1u6ebczNsZh3pZs2Fb+6yxh34a6z5/9Go/5ecz4nzyYK68cWgbOfbVu9LlHjrUs/JTnSsdeYdSj/6kXmTRkQ0/ZeL76nzGwFxm6Ejd07Z+TT+cpw+O0YENm74mR/fQow3X7tqfKaRw2E86xVo2YAp0BsnLYYCM51lACYixDw39jAXJudzTPrA971r20x/16hNzxsj5mXbYn2tpo+MSKIHLBOZd5O6aNzJPqGnebWTNBysZ9F+6pys76OKOs0dDB7pmm2eZT7mZz2ZuSjtTNn1nbKyX4oILrGbbiiPl0gfW8Ve76PX5eMZ40U0stC076VfKqyvzqn7MWFfnVudZ46zPkDmxJBd99/yMj33k84yy9PN5T3t7c+KbLPNdyLOMs00/3Vv5Ay8b+3vPaPJJeXTk8zsy1y59vkf5DHOsfL4HrtEnk7mecbLHfHLLMzcfnymkNE6ggKH58HA6P0CfD0J5H6Zn1UvvBWKMXOpk7KX2LGsJkZde31KvY3RyNtt8mMioc3WRcj/1dFwCJXCcAHc37yJ3zS8X1rln2ebdnokd2anD/OF9Tn2M0aFN95A1z7hGTlGXa9NH5shkm/ks40Uu89GU1Z69PmmH9VVck1P6s4oj99MH1pHXLnr1JXvk8COf18pOPq8pj47Mq9jEBjazrc65n+dZ43zyRqe8kmHGku+CMajfPuUZ26a9vfnkjI7037NH/EQ2P1v+qIv9Fcd81sjMu5HPz/18PnMfG+mX71HazrF+JwfX8J31VTMubKHP5vNj/e7tmkJKQDq35+jcm+Dmfr5g+eJra/ZCpKftJRH2Vw9pvkBTBh/zAc396VPnJVAClwlwr7y3SHN3/SJjfSbOebdn4kZH5g89mDnCdXpspA+sTTspT67Qr5WPZ/NZMkjfr8l9+gkXObo2+4wj99IH1jM37umdeV2daSef10o+86p+sJaxrM5pK8+zlmyPPCv12HMeP7Q/3yPnKc+aLe2zlnPjU3bupyzjVdO+Np0rmzpYS3Y5Vj6fD2vwVDfzub83z+fO2XyP0naO9WM+R9e3OLhv/OmzttF513ZNIYVDJBs+tHzZprPsKadsBsUYyDSgAss5D4rzlxo6hIctzm019tI+cumDc3yxzZcC+dxXbupxvX0JlMCPCcxEn3fXpJincp917nLqMH/kGcfcTXTmXUZ+lV/2EjY60EVb+Zg5QH8yn3mW89N/fEnZlW/GY29c+kKfY+Twg082ZPQFrnxo6QNz/NEP40k9jtlTn2v0aYd4tbOS57x+ph/5nZDnZpx5Htv5bmCbTzZszDX3811Tj/aU4Wy+K8q5vzfHdvJCl5w5n2e3/Dzij7zRmXrgiA3fN23Knz79YR8fU9/ePN8bbasvn2GOkaPlc2Ssj9ie9v985L1DHi7ZmCfr3LvZ+NpCCgfyQeAocz8ZjGvKZ1CAdB/QfASHDcC573lfINd5oLbUlz64v9KZ59nHP/Rkwy8f4owVPzyXvuf5jkugBP4/Ae5N3lHuV95F7hwy3rt5t03keR/Vt5UjuJ/mH/TPe47O9AGPOWOuoc8zez6yxydzgvLowQ6+6POUPZP7jFddyQpbrG/FgR0ZTx84w5pt6vAc9uQ6ZeTl80JXyqub88qmH6wRA7by3Iw5z6PTuB1rJ3vOIOcHnT4X5ZizT8MHZR0rx7r8WdubE596kZPdlq6Vn0f8SRs+K87J0Rjwgedmwz+fhWvoSh2X5ukz53yPtJ1+aIOec9pmPP3CVz7o9B1wDZ9oW+9g2rnp+EghdUuDBA6cthIogRL4CIGZyM/o2spD5Kb8Mjyjs7LPSYAv1SwAnsHLLBTv5Q/Fxda7nMXMtL91N6Zc50GghVTA6LAESuDTEPhIIcUXqz+9GjBfuP7U7Fr7z08g/4TjWaJ55kJqdTeehdvT+tFC6mkfTR0rgRLYIfCRQmpHbbdK4O4EnrmQunvwr2jg0YXUKzJsTCVQAiVQAiVQAl+UQAupL/rgG3YJlEAJlEAJlMDHCbSQ+jjDaiiBEiiBEiiBEviiBFpIfdEH37BLoARKoARKoAQ+TqCF1McZVkMJlEAJlEAJlMAXJdBC6os++IZdAiVQAiVQAiXwcQItpD7OsBpKoARKoARKoAS+KIEWUl/0wTfsEiiBEiiBEiiBjxNoIfVxhtVQAiVQAiVQAiXwRQm0kLrdg7/1v1bb3/t1u2dTTSVQAiVQAiVwFwJHCil+iaG/Xdl+/p6quzh3hVJ+T1D+tuipguKEz1YjvqOxzUKnhdQW1a6XwDYB7pF5hT5/wezc8+6mfI79rfHb1rpTAiVQAjcmcKaQStMkr72CJWUfOT5SSOH7KuFSQJGoW0g98onV1lclwB1c3UV+ILFxH1d31X1yUBZerrcvgRIogYcRuLaQmgULyc+fDGchMvf8qdI/6cpg55/qoEu9mWBNwu6hI+2wjv7ZsI3vqUsZzmBv+q8NepN6rhmPvjN3X9300+dpJ2PFR/QYA+NnLFwzvo5L4AwB3mnv09a5SzItpLbIdb0ESuBhBK4tpCgU/JLnS5+PLQuOuUexQXKkXSqkSJLKIs9Zi4+0r1167O0VHCZmev3nnAmZ89pgHTn1WQhpb+rAv/SLuVyMNW0iq2569NksqpRPP5RpXwKflQB3iftxqfHe7xVb3ttLerpfAiVQAncjcKaQ4ovfTzrEWjaKAIsR9iwGkGFswcB4niW5WlwwziSayZdzuaf9o4UU/lnkcBaf8CcLqbSn/vTJM7mn76wx9ssimSifXwIZt/tTv+vtS+CzE8h3n1jMBdzrzAncAdfo885ybur57FzqfwmUwCckcKaQMjySGwmMNhOgSY/CgT1ks+WaZ3M/C4qZRNFtYeJZ1rKgOlpIYZOz6CEW9WYhxbrxZK89/OO8LX1nbeqVmfK5P3Uhs1rzbPsS+MwEVj+kEI/32ti4A94317LnDs3iKvc7LoESKIG7E7imkCKxUVjYcuya/dzjLMnRNvezGGG8l0TRYeK1oDlTSPmnRGknCylss7fVZqGTvnMmCyVtpa78EkgflIGNcbnWvgRehcDq/fY+G2MLKUm0L4ESeFoC1xRSBEPB4U+CFAEUCqvGnnLsM89CijEFBc0CzTk6kb/UsqDJQmh1LhOzSTttzPMk+61iLnVhCz36zpyxurWVhVHqJlb02ZjnFw17qVu59iXwWQnMd5w4vCfGNO+Y6/bcicwvrrcvgRIogYcRuLaQwkG+6P1yJ+Ex9zMLBteRz4LB4ol9io5ZjJAkPUvPeZOt6yRkW+pLH9yfiRn9xoDMLKSmrfTdLwLXpu/otZBCd/pmLPpFj2zGhF5jYJx+5rmOS+CzEph3Yt4L3nvvhH3Gyp1oIZVEOi6BEng4gSOF1C2dojCw8Lil3uoqgRIogRIogRIogYcTaCH1cOQ1WAIlUAIlUAIl8CoEWki9ypNsHCVQAiVQAiVQAg8n8OhC6uEB1mAJlEAJlEAJlEAJ3ItAC6l7ka3eEiiBEiiBEiiBlyfQQurlH3EDLIESKIESKIESuBeBFlL3Ilu9JVACJVACJVACL0+ghdTLP+IGWAIlUAIlUAIlcC8CLaTuRbZ6S6AESqAESqAEXp5AC6mXf8QNsARKoARKoARK4F4EWkjdi2z1lkAJlEAJlEAJvDyBFlIv/4gbYAk8NYF//e9/e/u73/z921/901+//eQffvpDz5z1thIogRJ4egItpH78iOYvMv6xRFdKoARuQeDnv//HH4onCqjVh/222xDIvMYvXM/feZq/nB1r85dHH/Wgv0T6KKnKvRSBo4UUF8Tfvp6X7MwvIT4jexby/C3yv/jlr86qeJfPhPO+2EEJlMBNCVwqoiys9oqpLADISxQI2WZeyD3HytCvmrmPfjZsHm2X8gr76COmVSOn3SuvoXcV38qPvTV0EEdbCXwpAkcKKS5H/vQCIBPWmeLojOyZh4AvM6Hh81ZivKT7UsK7dL77JVAC+wT4z3YWSkf6rf/Mxz238KDPQmTOyROrQoQ1zm3lC/PfzDFEuFrbivxSXrGQMremHnwjB6/8T7m98Z59dG/Fv6dz7sEKO20l8KUIHCmkuNiry8HFI5H4UcbExLoXfyVrokvgyHMZbeqmX130lQ7PZp969Mn99I2EMhOOhVrGw1lk01f1tS+BEtgnwN+BOlJAKYP8kZYFwSpvcYfJGTa/+POce/bIkDO29ClHn7kicxbnMwelD54n7/BBbjbtz9yVOufeXl7LWFY6WEsfU2bm4dxLvTOGzkvgZQkcKaQsVrgks7FHErIxT7ksNlayXMJsJAOLkxynTI6xlfZyz3H6wBp6LfqMjZ5m8tEH+oyPs9qberXXvgRKYJ+Af7HcQulSj/ylxt3Nuzp/IOI8+xYCmY9yfdqxkPK8uYF55q+ZK8wl5paVP2mLfXLLlNPP9GPly5m8ph3tz/iJS7/ZM2ZjynPuscY5/G8rgS9F4EghJRAuFBclL46XXJnZmxxYn7LMMxEhk8VTFi1Tr/OZdFy35+KjJ1v6MRMKcqmTsyZe9lb6UnfHJVAClwlcKpxW+1tauaPkkXnP8x57NguGrbGy9lnAzEIi89fMFZxPH3Ks7uzZJx9hA99snpt+zHjP5LWZ95IFdokLfat8Z5zTT87hI/62lcCXInCmkBIMl87LkpfXfS4pF9EPc9qUZZ6JCBkuaRZq2EJGHdqwN/k4n/3qYqddk1SeyzXtGwv9TGB5tuMSKIHLBO71J1LcT77gaXmP9ciCYeYN15XLPgsY1rMIwZ4NHeSWbGln5c+WrHkwc1X68dG8ljHgw4yfuLCNHcbzA+OVD6u1jLHjEnhJAtcUUnm5GXMJbSQLPrZMJFMWmUxEzE0gnrfHBpd0ttVPRSnD/ix80g8SyizS0gfGJubU23EJlMD1BO71d6TyPs9iAW8tEGZh4HyVY1ibOcTCI/PXKldk8ZTjFbnMleatjCf9cD/1nMlrk43xqE9OKzvKrPamXmXbl8BLEzhSSHE5uKQ2LrTFE+uZTDIZIM8e52lTlrUskLiYyK+S2V4SIoHpzw+G/vxTI/qmDebI65M2jc+5PiA3k6g20nfX2pdACVwmcKv/a4+8kC3zh/nGu81dnvKe5S6bL1yzzwLGNfNE5r7Mi8gp45mZG123n/v4NPVnLpr552xeSxYzfuzKjfEWG/bMlcTBPPUaW/sSeGkCRwopExKXxE9C4QJ7gabsTA4piw6TDefZ4+PFNJG4lzbnmCSpb/qSMnt7eRb7+KwP6GCe592biSztdVwCJbBP4Bb/jlTeXe6od1PLzL273NetNguJlEMHeWE280KuT38sRpDJXJfrnp+5Erus2VZ+GBt9ynImfZl5jb2Un/GjTx9nTk+OGRNnps/63r4EXprAkULqpQE0uBIoge9G4FIxtfePcX43p2u4BEqgBJJAC6mk0XEJlMCjCfCf+fg7U/4FdHrmW/8I56P9q70SKIES2CXQQmoXTzdLoARKoARKoARKYJtAC6ltNt0pgRIogRIogRIogV0CLaR28XSzBEqgBEqgBEqgBLYJtJDaZtOdEiiBEiiBEiiBEtgl0EJqF083S6AESqAESqAESmCbQAupbTbdKYESKIESKIESKIFdAi2kdvF0swRKoARKoARKoAS2CbSQ2mbTnRIogRIogRIogRLYJdBCahdPN0ugBEqgBEqgBEpgm8B7IfXt29tbP2XQd6DvQN+BvgN9B/oO9B049Q78H0g1HbPtKJr9AAAAAElFTkSuQmCC;" vertex="1" parent="1">
          <mxGeometry x="320" y="210" width="250" height="31.99" as="geometry" />
        </mxCell>
        <mxCell id="5Wq_7XuYk5Ms4TRdeuI5-28" value="" style="shape=image;verticalLabelPosition=bottom;labelBackgroundColor=default;verticalAlign=top;aspect=fixed;imageAspect=0;image=data:image/png,iVBORw0KGgoAAAANSUhEUgAAAjcAAABMCAYAAACRUpaFAAAUfElEQVR4Ae2dTY4kW1KFaxstMegFsAGWwCJQS4g1ICEhxAiJGaNWiz00DJkwa1gDILGEZg2JvtT7Xp2yd909PDIyIzLyXCl0f+z/XDdzy6qsim8v37699FMM+gz0Gegz0Gegz0CfgWd5Br69BvLSUQSKQBEoAkWgCBSBJ0Dg27eXNjdPcI8NoQgUgSJQBIpAEfgJgTY3fRSKQBEoAkWgCBSBp0Kgzc1TXWeDKQJFoAgUgSJQBNrc9BkoAkWgCBSBIlAEngqBNjdPdZ0NpggUgSJQBIpAEWhz02egCBSBIlAEikAReCoE2tw81XU2mCLw8Aj86k9+/fLHP/7fw/v5ng7+xW/+8mcM/vbv/v7lt7/75/c0d6gbH/7wh/845JsM//Xf//NCLHvj9//yr4c8ym/5gZ2t54ZnCRofBvM1sejDPeetGO/p061s793hno2r82OvucmHxoeHB/URB8Vh74FePTQzMUlS42QG1BzQkekoAkXgegRWuag2as58WR7ltrLXzNSz2VjMujD1rnycPEd7YkTPo4ytpuLIvyOsjuQn/Ro/LpW5lG/69JH7vdz4SD+wtcqNj/bhTfYuaW7SAODvNRHJ+5HrowK4emhmYs7mhWTIwjfpHxlfbRWBZ0FglYvGtmocjnJb2WvmVZNxZG/l41nbK7tnddyS/9oX/6yhb/XpGj8uqcu3uLO3xnaJ/F5uXCJ/S55He0ZPx3a2uZmJz8PIhfCZf6ozaYDF4EGDP8d8qNGlXmgOkslzdaQdztA/x+p8JuZMEpq4S5ob5B6x4ZsYdF8EHgEBcjHz2PzOM3jIvVVu+xMldPj4ZP5NPcQM3fojBvBp2zNm9DlmHZq68eFsPUMGX6xT+JD+T5v6Mm17nrO+iAsyjC2dyuoDfikrjXnLNueJ68oOZ8SsHviJVzvQHfrBXh7maUd+dTB7l6zFVj5sTDvKeq49ZXI/42fvQI+8rudeXuNLnNPX6Tv80090HfmT9Lwfzif+3o0+ql88wQcefVGfMbhXHn59ZnZoW/3TD+9Bfmcxc5+60bk5zjY3KPYyCDiBgaaxScNBQTAB06kMgAdDXnigGXjaT3nsIbc1VnIJNnLY1H/26dOKri0vyX3nIlAEthEgFzO/2Zu71IakoWXmtsUzZTK/c60Xs6ZwTn5nvnOGbmvNrA/qmj6erWf6j5x+GMv085Lal34RuzGhn/VWHMrpQ+KGXWu78ekv/kNnpO5cp2741QUPduZefvSCgXza3NKN3KzbGYd6OXNgW/ucQUM/g3PvH73aT/55R8gnHuzlNw5twwddvStd0tChnpWf6lzpyBxKPfqTeuFFRw78FBOfV/czBvZiho7UPW3r1/TDffrgGv36l2vpm/MlzQ2X4ScVcZaDAA0yLxAeLszAWE/ZdJq1QCLLmjMGckl7PVwUQM+dpz+co0ef2LOGz8+0A32eqb9zESgClyEwc5ECaN3IOqE26BY3zuC1Hqx40H+Upys76CLHoTHQga45piz7yTfrWfqPvrQzedN31sZ6FBe45ItFv7fikM6cPrDHX+2i1/tRxnjRTSyMLTvpV/KrK+uqfsxYV3Irec6Q9Q7ZE0viou/Kz/igw58y8jLP+5729vbEN7HMZyFlWeeYfkpb+QNeDuh7dzTxSX505P1dstcucz5HeYe5lj+fA8+YfSZcT/yS94f1Jc2NAhjHWYaAcgH5wfAER34BVla9zBkAfKmTNXT1SMsL5EHUt9TrGp3YzTEBhkedq4c76amn6yJQBC5HgPzNXCTXLFir2jFzexZbLE8dqxqRHqJDm56T+9YZz6gp6vJs+sgenhyznmW88GU9mrzac9Yn7XBunUqbE6ekreJIevrAOfzaRa++5AzfrKErO3lfkx8dWVexiQ1s5ljJSU95zpBPvNEpXolhxpLPgjGo3zn5WTumvb39xBkd6b+yl/gJb362/FEX9BWOedfwzNzI+5Oe9zPp2Ei/fI7Sdq71O3HwjHliBh/6886S/+f1meZGpxXGwNaYtBnMpGcArOHfG14YM2MvsaGvgJuXOnnwMf2Y9D3/SisCRWCNAHll3sJB7lqoOCfPcszcnsUU3qwfys4a4TkzNtIHzqad5KdW6NfKx7P1LDFI36+pffoJLuLo2ZwzjqSlD5xnbdzTO+u6OtNO3teKP+uqfnCWsazktJXynCW2l9yVepyRxw/tz+fIffJz5kj7nOXe+OSd9ORlvRra16Z7eVMHZ4ldruXP++EMPNXNftL39nnvyOZzlLZzrR/zHj1fYQYNfvRvjjPNDUooAHwY+QBMA9DkkxdnHOkYgXIhOgp4yB8NdHgJ2EJua0BL+/ClD+7xxTEvCv6kyzf1eN65CBSBXyIwi2/m7izUSCedPbmcOqwfv7T0vVBnLsO/qi/o3Br4Zf1Y+Zg1QH+ynim78h9fknfl2/QLffihL3MNP37wyQGfvoArH0b6wB5/9MN4Uo9raOrzjDntcF/aWfEjr5/pR74TUi5jxlbKs89nA9t8cmBjnknPZ0092pMH2XxW5JO+t8d24oUucUY+Zbf8vMQf8UZn6gFHbPi8aVP8mdMf6PiY+vb2+dxoW315h7mGj5H3yFofkXf9E+vrhE+r8595zjY3CCY4OMHeD8A7PJM/L5XgpOP8DADHpSvvpXoOyI7Ulz5IZ546Ux56gqscfnmxM1b8UG4XZJV1LgJF4DWvM0fJr8xFco7cMu9mbltcMx/Vt1UjyE/rD/rRmQOd6QM0ZKw1zCmz5yM0PlkT5EcPdvBFnyfvrFPo2YrLc3UlVtjifCsO7Ijx9AEZzhxTh3LYE9fJI17eF7qSX93Iy5t+cEYM2Eq5GXPKo9O4XWsnZ2Tg84NO70U+9tAZ+CCva/k4F3/O9vbEp174xG5L18rPS/xJG94VcuJoDPjAvTnwz7vwDF2p42ifPiPnc6Tt9EMbzMhpm7V+5TORutWbOn5Y7zU3PzC+ccPl41hHESgCReAtCMziekbXVh2iNuUL6ozO8j4mArwc86X8CF7mi/q9/JnNVdrJBiPPWW/lxuT76D2Y2fScst3m5hRcZS4CReDOCLylueFlh3wOXoKHPwWmQNefAgEa1qteiu8Y3SM3N6vceEcoLlJNw0WzdtVoc3MVbBUqAkXgTgi8pbm5k8s1WwReEXjk5ubRroimZv612SkfP6q5OeVUmYtAESgCRaAIFIEicC0CbW6uRa5yRaAIFIEiUASKwEMi0ObmIa+lThWBIlAEikARKALXItDm5lrkKlcEikARKAJFoAg8JAJtbh7yWupUESgCRaAIFIEicC0CbW6uRa5yRaAIFIEiUASKwEMi0ObmIa+lThWBIlAEikARKALXItDm5lrkKlcEikARKAJFoAg8JAJtbh7yWupUESgCRaAIFIEicC0CbW6uRe673K3/18l+z813bLsqAkWgCBSBInAagb3mxu918L9BZp7fy3La4DsJ8L0YfovoygQNA5+tcSa22Xy0udlCtedFYBsB8ihrS37J4aSZu8mf60f7DqHtqEspAkXgQxC4pLlJRygoe01E8n7k+pLmBt9XRZCGjeJ5aeMGb36DcJubj7zp2vrsCJCDq1wkjxzk2CpXpT/iNz7rW+ciUAQeAIGzzc1sIihI/gQ1m4NJ86cv/0Qow58NArrUm0XPwigNHWmH82w8tIFtfE9d0pDB3vRfG8wW2jwzHn1nL13dzNPnaSdjxUf0GAPrR2wmM76ui8AZBHimzactuSOeNjdbyPW8CBSBVwTONje8vH3x8iLm48gmYNJoAChYjKPmhsIlL/zI2hCkfe0yY2+vCbBYMus/chZJ5LXBOXzqsznR3tSBf+kXe3Ex1rQJr7qZ0eew0ZE//ZCncxH4rAiQS+TH0eC532uAzNsjPaUXgSLwRRG4pLnhZewnYeIsBy9mGwRovqDhYe1LnPWUpeD5wmedhS0LInJJ0/6lzQ3+2Xggi0/4k81N2lN/+qRM0vSdM9YW8MRE/izMGbf0qd/zzkXgsyOQzz6xWAvI66wJ5IBnzJmzyE09nx2X+l8EisCNEbikudEkBYeiwphFyULEyxwavDnyTNmk50t+FjZ02ywoy1k2OZc2N9hEFj3Eot5sbjg3npy1h3/IO9J3zqZeMZM/6VMXPKszZTsXgc+MwOoHB+Ixr42NHDDfPMuZHJoNT9K7LgJF4IsjcKa5odjwsnfk2jPnSUOWguWY9GwQWO8VNnRYDG0yzjQ3/mlK2snmBtvQtsZsPtJ3ZLJ50VbqysKcPsgDNsblWeci8CwIrJ5v89kY29yIROciUASuQuBMc4MBmgB/YuLFzMt7NaDJB519NjeseckzbJrcoxP+o5FNRjYnK7kslhbStDHlKcBbDVbqwhZ69J09a3VrK5uV1E2s6HOwz+IPLXXL17kIfFYE5jNOHOaJMc0c89yZnMj64nnnIlAEisArAmebG4R4+frCpQix9zNf4p7Dny9xGxroNAKzQaBwKcuMvAXQc4qkI/WlD9JnsUS/McAzm5tpK323OHs2fUevzQ260zdj0S9meDMm9BoD6/Qz5bouAp8VgZkTMy947s0J54yVnGhzk4h0XQSKwA8I7DU3PzC+ccPL2mbgjaoqXgSKQBEoAkWgCBSBbQTa3GxjU0oRKAJFoAgUgSLwCRFoc/MJL60uF4EiUASKQBEoAtsIfFRzs+1BKUWgCBSBIlAEikARuCECbW5uCGZVFYEiUASKQBEoAvdHoM3N/e+gHhSBIlAEikARKAI3RKDNzQ3BrKoiUASKQBEoAkXg/gi0ubn/HdSDIlAEikARKAJF4IYItLm5IZhVVQSKQBEoAkWgCNwfgTY397+DelAEikARKAJFoAjcEIE2NzcEs6qKQBEoAkWgCBSB+yPQ5ub+d1APisBXRODf//c/X/7q93/z8qf/9Ocvv/qHP3ud2XPeUQSKQBF4EwJtbr7DN79M8zulqyJQBG6JwF//2z++NjQ0NasP9I7bIJB1jS/9ze/4yy8Ixtr8AtNLPegXmV6KVPk+DIGj5oaH1m/lzQf/zBdhnuE9G/j8duH8Nu6zurIInJUtfxEoApchcNTY2OzsNTj5UqYu8dLOMetC0lzLw7wa1j7mObB56TiqK9DRR0yrQU17r7qG3lV8Kz/2ztBBHB1F4GEQ2GtueGCzy8dpi8iZhuUM7xlg8GUWGXzeKlZHuo+K0JF86UWgCOwjwF852bxcMm/9FRV5bjPAnM3B3FMnVs0BZ8ht1Qvr36wxRLg624r8qK7Y3FhbUw++UYNX/iff3nrPPrq34t/TOWlghZ2OIvAwCOw1NyTb6oElGUhuP/JYLDg3GVe8Fp8EAX4SxKFu5lXyrXQom3Pq0Sfp6RtJPouAzVPGgyy86av6OheBIrCPAL9Tc0lTIw/8l4x8Sa/qFjlMzXD4Mk45ac7wUDO29MnHnLUiaxbyWYPSB+WpO3zgm0P7s3alzknbq2sZy0oHZ+lj8sw6nLTUO2PovgjcBYG95sYGggd3DmgUBgf75MsGYMVLYuQgQW0Ycp08ucZW2kua6/SBM/TaiBkbM8OCoA/MGR+y2pt6tde5CBSBfQT85WGbl6MZ/qNB7mauzh9SkIfuyznrUZ5POzY3ylsb2Gf9mrXCWmJtWfmTtqBTWyaffqYfK1/O1DXtaH/GT1z6Dc2YjSnlpHGGHP53FIGHQWCvudFJHnIe3nyYTTx55mzCcj552WdxgCcbmmwkpl73sxB47kwyoidH+jGTHL7UiazFENpKX+ruuggUgWMEjpqZFX1LKzlKHZl5nnmsbL7Et9byOmdTMV/uWb9mrUA+fci1unOGTj3CBr45lJt+zHjP1LVZ9xIL7BIX+lb1zjinn8jhI/52FIGHQeCS5kZnSQQf4Ewo6SQOyeGHPWPyss/iAA+Jk80TtuBRhzacLQju57xKtrRr4Ui5PNO+sTDPopKyXReBInCMwHv9yQ35yUuXkXmsR77EZ93wXL6cs6ngPBsD7DnQQW3JkXZW/mzxWgezVqUfb61rGQM+zPiJC9vYYT0/YLzyYXWWMXZdBD4cgTPNTSYcaxLDQQLzcWRyT154sjiwN6mVd8YGiTPH6qeH5IE+m5H0gySfjVP6wNpimXq7LgJF4HoE3ut3bjKf5wscb31pz5e1+1WN4WzWEJuBrF+rWpENTa5XyGWttG5lPOmH9NRzpq5NbIxHfeK0siPPijb1ytu5CNwNgb3mhgeWxHGQZDY0nGeCZ4LCDw15xuTlLJsWkgX+VYHZKwwUFf15NfTTT1fomzbYw69P2jQ+9/oA3yxs2kjfPetcBIrAMQK3+tdS1IUcWT+sN+Y2uTz5lSWXrReeOWdT4Zl1Imtf1kX45FFm1kbPnScdn6b+rEWz/pyta4nFjB+74sZ6Cxto1kriYJ96ja1zEbgbAnvNjUWCB9dPOkpS+VBP3pmwyYsOCwDy0PiYLCa3tLQ51xQufdOX5NmjpSz28Vkf0ME+5aXN4pL2ui4CRWAfgVv8PzeZu+Souall9uYu+bo15ss9+dBBXZjDupDn0x8bBHiy1uW58rNWYpczx8oPY2NOXmTSl1nXoCX/jB99+jhreuKYMSEzfdb3zkXgbgjsNTd3c6qGi0AReGoEjhqcvf/A76mBaXBFoAjcBoE2N7fBsVqKQBE4hwB/RcXv4PhLxszst/7jvnPay10EisCXRqDNzZe+/gZfBIpAESgCReD5EGhz83x32oiKQBEoAkWgCHxpBNrcfOnrb/BFoAgUgSJQBJ4PgTY3z3enjagIFIEiUASKwJdGoM3Nl77+Bl8EikARKAJF4PkQaHPzfHfaiIpAESgCRaAIfGkE2tx86etv8EWgCBSBIlAEng+BNjfPd6eNqAgUgSJQBIrAl0agzc2Xvv4GXwSKQBEoAkXg+RBoc/N8d9qIikARKAJFoAh8aQTa3Pzy+vliOb4IbmvwBXJ+udwWT8+LQBEoAkWgCBSBOyHwc3Pz7dvLSz/FoM9An4E+A30G+gz0GXiCZ+D/ARNaWH5uZsTSAAAAAElFTkSuQmCC;" vertex="1" parent="1">
          <mxGeometry x="319.5" y="270.48999999999995" width="250" height="33.51" as="geometry" />
        </mxCell>
        <mxCell id="5Wq_7XuYk5Ms4TRdeuI5-30" value="" style="shape=image;verticalLabelPosition=bottom;labelBackgroundColor=default;verticalAlign=top;aspect=fixed;imageAspect=0;image=data:image/png,iVBORw0KGgoAAAANSUhEUgAAAlUAAABECAYAAACoE8ClAAATDklEQVR4Ae2dzY1kSRVG2w0kFhiAA5iAEQhphA1ISAixQmLHCiF8mJklG3aADYCECWBDodPMaX19ifdeZnZmVVbmF1IS8SLuX5x4cfNWdzP14eXDh5d+yqDvQN+BvgN9B/oO9B3oO/Bl78CHjwBf2kqgBEqgBEqgBEqgBC4m8OHDS4uqi+lVsQRKoARKoARKoAS+I9Ciqq9CCZRACZRACZRACVyBQIuqK0CsiRIogRIogRIogRJoUdV3oARKoARKoARKoASuQKBF1RUg1kQJlEAJlEAJlEAJtKjqO1ACJVACJVACJVACVyDQouoKEGuiBEpgk8D3vv+Dl3//+z+b68+w8JOffvWJwS9/9euX3//hj2+6bWL4y1/+enYMf//HP1/Yy177+ptvD2XU34oDP1vvDe8Sa3xo9JfsxRjest/a41vGtPKd7+9q/Uvn3vMZ/t/es6jKl5VN8uGC3GMjKe1dpNXLOhMCL4r7pOeCZ2MdnbYSKIHLCazuotbIOfNL+uhuq3tJTz6bBc3MC9PuKsYpc/R86y+lI/9zfauYmXLz+YjVlD96viSOU3VOlTuK8Zbre3fjln5Xtld3Q7lT399b3l1juft+VVRl0Bz6XvGSsq85Pjq81cs6E8IsmriEmXDn+mvur75K4FEIrO6ie1sVLEd3W91L+tWXw5G/VYzn+l75PdfGNeUvLThmDv3SmC6J45S8fI0z+9K9naK/dzdO0b+mzN47ureWMRzdpZR92PFRUTUhcQl4EfjMP8WaaxwEjRcc+WzzMmFLu6zZuMTOayP9MIf92VbzMyHMy0nxyH5tcz3n77HQNL72JXBPBLiLeY+93zmHDHdvdbf9CZp15Pjk/Zt22Dvr5h9ZIKdv5+ixZ5t5aNomhnPzGTrEYp4ihox/+jSW6dv57I1FLujQtmyqawzEpa5r9Fu+mU+uKz/MsWftIM9+9cO6zTh4VoZ++lFeG/SeJWPZKoeP6Udd5/WnTj7P/fNsw46yjuezsu4vOWesM3bkZ5zYOoon1/N8mJ/8PRtj1L48eYaRccz3N30hwzMtY899aYde9h8V4n9SftoPsU8xIZ/xrva55Svt3WR8VFTlZoGbB8KaQOcaG/Zwvfi5AdZ5EWn0yvLMmkDSf+rjT/2cd7zSE7wy+DR+5jImnud66u35Vq59CZTA/4qWvN/cTe8PuSHX4DXvtgk+dfJ+51jeyE673O+878hi21wz84O2Zozn5jPjR4+WeWbGeUruy7jYu3vCPuOtfahnDMkNv+Z292e8xM86LW3nOG0jry1k8DOflZeFcvrcso3ezMu5D+0yZ8O3/pljDfs05j1/7Oo/5ecZoZ88eFbefegbOda1u7LlGja0s4pTmysb+a6nHeNJu8hiIxtxymTan+9v2pqyrKVtxtpln8ki/ed8jlNmxk3MxjL36XPqv9p4VVSxKT8ZCHPZgO0LOUEA0IMWZuoCRPh5oMgAhDkadj2U1J+Hl2vq+bK6hh1jYo6x+1z5YX3lW3vtS6AEjgnM3MDdNW9kntDSvNvImg9WMqu7q5z9yg9r3HHzBHcdW7NNXZ6n3Mxn5jZtpZ8pmzmGsXs92hdc/FLRD/3WPlImY2CeePWLXc9HHfeLbfZC2/KTcaW8tjKvGsfc60pvpc8cup4hz+wluRi7+nN/rCOfOsrSz/Oe/vae2d9kme9C6jLONuN0bRUPvGys753R5JPy2PBMtEefMef8jAWG891P+Tz7nJ8ccj/I8ez7qV7GvXpftnypf7N+VVTpjKAEJDw2nx8OPjenbs6p6xp9Hhx+0iZjAarLXII+5fDQzTbBJ/TVpcr1tNNxCZTA6QS4u3kXuWt+0TDPPcs27zayzGWbNswfmSNSfvUFhax5RlnynbacmzHyjEy2mc9yv8ixR+emrP7sjUk/zK/2NTllPKt95HrGwDzy+sWusWSP3MyhKz95XlMeG5lX8YmPeb4rPeNPfebQly3P2JRXMsy9+P4h7x60b5/yjG3T397z5IyNjF/dU+JENj9b8WiL9RXHPGtk5t3Id1Ufcy7jYGxbvZOesTqejTr0rHmGxs+cssQ83xHl0F/tMzmnr5uP94oqAk1gOZ6BzbW5ybmeL1tegmnXZwEKfnV4ytKvgM6XacoQo4e4ZSN9dFwCJXBMgHvlvUWau+uXGvPcw2zzbueXtHKZP5ybOcJ5enxkDMxNPylPrjCuVYzn5rNkkLFfkvuMc34ZOp997iPnMwbmMzfu2Z15XZvpJ89rJZ951ziYQ8+20nMt9ZlLtqeclXbs0ScO/c/3yOeUZ86W/pnLZ/en7FxPWcarpn99+qxs2mAu2eVY+Twf5uCpbZ6JGb1s+tC38j4rO+8Utnk3bPPsnNe+z/Tapice4srGPPZoq31u+UobNxnvFVU4BBIfWr54MxjWlFPWDfPMWLgAAKLPHPIENu1rA5A0fHkJVrKspX/19elzvjyspQ7jXNdP7sW59iVQAmsCM2Hm3TVxpmauM89dThvmj9RxzN3EZt5l5Ff5BZtbLRP2KsbMAcZjbpm5Z8ZPLCm7im3G5b6MhT7HyBMHn2zIoEuDKx9axsAz8RiH+/koOP6HNe3lUvphv/pZyaNvnBlHfiek3txn6hNDvhv45pMNH3PO9XzXtKM/ZdDNd0U51/ee8Z28sCVn9FN3K85T4pE3NtMOHPHh+6ZP+dNnPKwT44zZOI9iSZ7YyrMyFn2zZlzaRycbMvikpTzPc5+sZ+NZXzl/8/FRUUUAeSgEyrMfN6yc88DKTQqUdWDwESi6HIa69Kx5gM7nxUh7GUMCmzZTH7kVdOLyBZ17JQ71Mvb02XEJlMDnBLg3eUdn4uXOIeO9m3ebe8ta3kftbeWIzD/Yn8kVmzMfoGOuoU+dvRhZ45M5QXns4IfYjXnKsrf0i52tfTmvrWSFDea39oEfGc8Y0GHONm2ohz/2Qpsy8vK8kEl5baOvbMbBHHvAV+rNPac+Nt23Y/1kj04yxqbnohzPyNCIQXnHyqU/5vae2Z92kZPdlq1VnKfEkz48K/Tk6B6IgXOzEZ9n4Rw988jykZPvXNpyrK5niN58F7GZZ8fYWJT3rNO3tumdp1/tM2XTV87ffJxF1TWdAYdNtZVACZTAlxAgqWcCPcfWVh4iN7HW9jgE+IK+9D25FQUKCQuHW/mwIFnZt6harW3djZXsrefYw8O0FlUPc5TdSAk8JIEvKar4kkU/G19yfNm1PRaBN/uTiR2M91xUre7GzlZutvRw97FF1c3elRougRK4AoEvKaqu4L4mSuBiAvdcVF28qSspzr8qvJLZtzdzq6Lq7XfWCEqgBEqgBEqgBErgFQm0qHpF2HVVAiVQAiVQAiXwuARaVD3u2XZnJVACJVACJVACr0igRdUrwq6rEiiBEiiBEiiBxyXQoupxz7Y7K4ESKIESKIESeEUCLapeEXZdlUAJlEAJlEAJPC6BFlWPe7bdWQmUQAmUQAmUwCsSaFH1irDrqgRKoARKoARK4HEJtKh63LPtzkqgBEqgBEqgBF6RQIuq82Ff+7+S299Ddv4ZVKMESqAESqAE7o5AFlX8gsX8LdCM5+/NupcN8HuL9n5RJYUKn612zt5m0dOiaotq50tgmwD3KPNL/vLbuebdTfkc8ysu2kqgBErg7gisiqoMkkS2V7yk7GuOTymqiH2VfCkUSdqnFozI5m+0b1H1middX++dgL/ja95F7pGNOzbXXaMnB2URlmsdl0AJlMDdEDgqqmbxQiL0J8ZZlMw1f9r0T8By07MwwZZ2M9makF3DRvphPgsefeCb2NOWa+jgb8avD3oTfM65H2Pn2XVt08+Yp5/cKzFixz0wvsciNvfXcQmcQ4B32vu0pXck06Jqi1znS6AE7orAUVFF0eAXPgUAH1sWH3ONwoNESTsqqkiYyiKProVI+tcvPf72ig+TNL3xo2dyRl8fzCOnPYsi/U0bxJdx8SwX95o+kdU2PfZsFljKZxzKtC+B90qAu8T9OGq893uFl/f2yE7XS6AESuBNCayKKooAPxkcc9koCCxMWLMwQIaxxQPjqUuitdBgnAk1EzF6uab/U4sq4rPgQZeYiCeLqvSn/YxJnVwzduYY+8WRTJTPL4Tct+vTvvPtS+C9E8h3n72YC7jXmRO4A87R551Fb9p571wafwmUwIMSWBVVbpVERzKjzWRoAqSIYA3ZbDmnbq5ncTETKrYtUtRlLourU4sqfKKLHfai3SyqmHc/2euP+NC3ZezMTbsyUz7Xpy1kVnPqti+B90xg9QML+/FeuzfugPfNuey5Q7PQyvWOS6AESuAuCOwVVSQ5igxbjp2zn2vokihtcz0LE8Z7CRUbJmGLm3OKKv/0KP1kUYVv1rbaLHoydnSyaNJX2sovhIxBGdi4L+fal8CjEFi9395n99iiShLtS6AE3jWBvaKKjVF8+BMiBQFFw6qxphzrPGdRxZjigmax5jM2kT9qWdxkUbTSyyRtAk8fU5/Ev1XYpS18YcfYeWasbX1lkZS22Sv2bDznlw5raVu59iXwXgnMd5x9eE/c07xjzttzJzK/ON++BEqgBO6KwFFRRbB86ftFT/Lj2c8sHpxHPosHCynWKUBmYULCVJcefROv8yRnW9rLGFyfSRr77gGZWVRNXxm7XwrOzdixa1GF7YzNvRgXPbK5J+y6B8YZZ+p1XALvlcC8E/Ne8N57J+xzr9yJFlVJpOMSKIG7JJBF1TUDpEiwCLmm3doqgRIogRIogRIogbsk0KLqLo+lQZVACZRACZRACbw3Ai2q3tuJNd4SKIESKIESKIG7JHCrououN9ugSqAESqAESqAESuBWBFpU3Yps7ZZACZRACZRACTwVgRZVT3Xc3WwJlEAJlEAJlMCtCLSouhXZ2i2BEiiBEiiBEngqAi2qnuq4u9kSKIESKIESKIFbEWhRdSuytVsCJVACJVACJfBUBFpUPdVxd7MlUAIlUAIlUAK3ItCi6lZka7cESqAESqAESuCpCLSoeqrj7mZL4M0I/Plff3v52de/ePnh73788r3f/OhjzzPzbSVQAiXwEASeuaiav2T5IQ60myiBOyTw8z/99mMhRTG1+rDeVgIlUALvnsAsqvht8P6W+PxN8uf8guRzZM8FOH/b/S9/9etzTXySb1H1CUUHJXAzAkcFlUXWUWGVeenrb779LN6ZF3Jxby3lHJNT0hd5Ihs5cuYd5Odc6nRcAiXwJASyqCJZ/OSnX322c5PXOYXSObKfOTt4IBaSVzZiJmle0lpUXUKtOiVwOgH+as+i6ZR+668CufvkFRt5wHvPPM+uI2uBs7emrezJf7OIwpb2kJ1FFTrMtZVACZTASxZVJKOZUEA0f9JThkRDMuNj0lnJmtgSN/KZiLRDb7JM+ZWNXHecdozJtYzN5JkxWLTlftBt0pRg+xI4jwD/ZuqUYkoZ5E9p+QPRKm9xh8kZe2vTz0pWmcwBWVSRY9BrK4ESKIGPBLKosnBZJQnWSCw2E5bPmXRWsiS5bFlU5ThlckxMq7hSJmNgHrsWgO6NnmaBZVFFn/vLZDntps+OS6AEtgn4j9Itmo565E9p3El/+MoCS13X99aUtefOa9M5e3KPucSiimfnlGtfAiXw5ASyqBIFCYkiyIKD+VkoKWtPcrHombIWNMrSZyGVBUzK5Bj7GU+uMSYZYidbxpFJUZm0ORPqyp567UugBE4jcFRErdaPLHNv+djyHjt3SVGFDjlj1cg9+mRMfpw/KK70OlcCJfBkBFZFlQhIMiaSLFBcp1AxudBfWlRhz0JOG/qwJ46tNWQy6amTxdwq8eac/nM/s0jTbvsSKIHTCFz7T6q4p/OHq7zHRoUcPxjtrSlrP3+wcp6e3IMtGv6RZQ4/bSVQAiXwicBeUZVFySyqSDAmGYwxtuiZsqzPn+pISjM5IrdKmsyTIPcS2OpPljIOYjM+7NEyhr2E+p14uxIogTMJXOvfVJmL6GfjXmcuYt18s7d2ih1lLNJ4tqhijN+9vKR++xIogSchkEUVCSiTFsnDhGFSE0sWUczNP6kyqSmPHYsoCiDWfVaGHruredYofIxHHWLGHi19KM86TZ/uz2d9IYf9VZt2VzKdK4ES+H8C1/p//5EXvOfTi7nJu81dRp62tzbt8ExeUtd18kLmBnJGPs919dqXQAk8IYEsqkxAJBY/iYTkYdKZsiQiCxh0UpZnixj0TUIWNBQt+mNtr+FDWWNJ+b211MUPMRsDNnhOfddaVCXhjkvgPALX+O9UmU/yfmau4K66xn3NtreWco6nr8xryGAvfTNnDtNG+xIogSclkEXVkyLotkugBG5M4KiwOvoPf944vJovgRIogesQaFF1HY61UgIlsE+Avwrk31j5j9fped76D37uW+tqCZRACdwhgRZVd3goDakESqAESqAESuD9EWhR9f7OrBGXQAmUQAmUQAncIYEWVXd4KA2pBEqgBEqgBErg/RH4VFR9+PDCLwLspwz6DvQd6DvQd6DvQN+BvgOXvQP/BYAlN6p28YefAAAAAElFTkSuQmCC;" vertex="1" parent="1">
          <mxGeometry x="317.05" y="320" width="250.5" height="28.53" as="geometry" />
        </mxCell>
        <mxCell id="5Wq_7XuYk5Ms4TRdeuI5-31" value="" style="endArrow=classic;html=1;rounded=0;" edge="1" parent="1">
          <mxGeometry width="50" height="50" relative="1" as="geometry">
            <mxPoint x="265" y="360" as="sourcePoint" />
            <mxPoint x="95" y="360" as="targetPoint" />
          </mxGeometry>
        </mxCell>
        <mxCell id="5Wq_7XuYk5Ms4TRdeuI5-32" value="[{content:&quot;&quot;,date&quot;&quot;}]" style="text;html=1;align=center;verticalAlign=middle;whiteSpace=wrap;rounded=0;" vertex="1" parent="1">
          <mxGeometry x="152" y="339" width="60" height="30" as="geometry" />
        </mxCell>
      </root>
    </mxGraphModel>
  </diagram>
</mxfile>
